<svg width="327" height="40" viewBox="0 0 327 40" fill="none" xmlns="http://www.w3.org/2000/svg">
<path fill-rule="evenodd" clip-rule="evenodd" d="M90.7042 22.7686H80.7298C80.7298 18.254 82.6132 15.8063 85.8104 15.8063C88.8208 15.8063 90.7042 18.6297 90.7042 22.7686ZM96.3474 26.9111V25.7824C96.3474 19.947 95.2187 16.7498 93.1484 14.4907C91.4554 12.6091 88.8208 11.6691 85.8087 11.6691C82.4228 11.6691 79.7881 12.7977 77.7177 15.2437C75.6474 17.6897 74.5187 20.8905 74.5187 25.4051C74.5187 34.0621 79.0333 39.3315 86.5617 39.3315C90.1363 39.3315 93.3353 38.0141 95.97 35.7551L93.8997 32.3691C91.8293 34.0621 89.759 35.0038 87.313 35.0038C84.867 35.0038 82.9853 34.0621 81.668 32.1822C80.915 31.0535 80.5393 29.1684 80.5393 27.2885V26.9128H96.3474V26.9111V26.9111ZM170.113 26.1563L169.926 32.3674C168.798 34.2473 166.916 35.3777 164.845 35.3777C162.4 35.3777 161.082 33.8734 161.082 31.2387C161.082 29.7344 161.458 28.6041 162.4 27.6624C163.528 26.5337 165.412 26.1581 168.798 26.1581L170.113 26.1563V26.1563ZM177.642 36.1307C175.762 35.0021 175.382 33.8717 175.382 30.8614V20.5113C175.382 18.0636 175.382 17.1219 175.007 15.9933C174.065 13.1699 171.055 11.6656 167.105 11.6656C164.845 11.6656 162.4 12.0412 160.142 13.1699C158.636 13.9229 157.319 14.2985 156.002 15.2402L158.447 19.1923C159.576 18.4392 160.329 18.0636 161.647 17.3106C163.339 16.5576 165.032 16.1819 166.35 16.1819C167.854 16.1819 168.796 16.5576 169.364 17.3106C169.926 18.0636 170.115 19.0053 170.115 20.887V22.3913H168.422C159.765 22.3913 155.248 25.4016 155.248 31.6109C155.248 33.4943 155.813 35.942 157.319 37.2576C158.825 38.5749 160.705 39.3262 163.906 39.3262C166.163 39.3262 167.856 38.7636 169.551 37.8219C170.113 37.2594 170.302 36.8802 171.055 36.129C171.617 37.8219 173.127 39.1393 174.818 39.7018L177.642 36.1307ZM302.591 22.7686H292.804C292.804 18.254 294.687 15.8063 297.697 15.8063C300.9 15.8063 302.591 18.6297 302.591 22.7686V22.7686ZM308.423 26.9111V25.7824C308.423 19.947 307.296 16.7498 305.226 14.4907C303.342 12.6091 300.711 11.6691 297.697 11.6691C294.5 11.6691 291.866 12.7977 289.795 15.2437C287.723 17.6897 286.594 20.8905 286.594 25.4051C286.594 34.0621 291.113 39.3315 298.641 39.3315C302.029 39.3315 305.228 38.0141 308.049 35.7551L305.79 32.3691C303.91 34.0621 301.651 35.0038 299.392 35.0038C296.758 35.0038 294.878 34.0621 293.749 32.1822C292.994 31.0535 292.62 28.9814 292.62 27.2885V26.9128H308.423V26.9111V26.9111ZM70.0041 38.5784V2.63468H64.3574V17.3123H51.3744V2.63468H45.9164V38.5784H51.3744V21.8304H64.3574V38.5784H70.0041ZM114.79 12.043C114.226 11.8543 113.661 11.6674 112.72 11.6674C109.896 11.6674 107.826 13.1716 106.133 15.8063V15.242C106.133 13.7377 105.756 12.796 105.191 11.6674L99.922 12.9847C100.675 14.6777 100.864 16.5593 100.864 19.7583V38.5767H106.509V21.0757C106.697 19.5714 107.073 19.0053 108.015 18.0654C108.956 17.1237 110.272 16.9367 111.402 16.9367C112.155 16.9367 112.342 17.1237 113.095 17.3123L114.79 12.043ZM150.543 38.5784V19.194C150.543 16.3706 149.979 14.6777 148.473 13.3603C147.344 12.2317 145.65 11.6674 143.768 11.6674C140.946 11.6674 137.747 13.1716 135.677 15.6194C135.128 14.4362 134.251 13.4352 133.151 12.7348C132.05 12.0344 130.772 11.664 129.468 11.6674C127.022 11.6674 124.387 13.1716 122.505 15.0533C122.319 13.736 121.941 12.6073 121.566 11.8543L116.485 13.1716C117.238 14.8646 117.425 15.8063 117.425 19.5714V38.5784H122.694V19.194C124.953 17.3123 126.646 16.3706 128.339 16.3706C130.596 16.3706 131.163 17.688 131.163 20.7V38.5767H136.621V19.5714C138.691 17.3123 140.761 16.3706 142.266 16.3706C144.336 16.3706 145.087 17.4993 145.087 20.134V38.5784H150.543ZM202.292 38.5784V19.0071C202.292 14.302 199.47 11.856 195.331 11.856C192.51 11.856 190.251 12.7977 187.429 15.242C187.429 14.1133 187.05 12.9847 186.487 11.6674L181.407 13.1716C182.161 14.8646 182.161 16.3706 182.161 19.194V38.5784H187.618V19.5714C189.498 17.688 191.945 16.3706 193.829 16.3706C195.897 16.3706 196.839 17.4993 196.839 21.0757V38.5784H202.292V38.5784ZM244.821 38.5784L241.81 2.63468H234.095L227.131 29.3536L219.982 2.63468H212.079L208.69 38.5784H213.959L216.405 8.46835L224.496 38.5784H228.827L237.105 9.03267L239.364 38.5784H244.821V38.5784ZM256.299 38.5784V11.6674L250.656 12.6091V38.5784H256.299ZM257.241 4.51634C257.241 2.63467 255.544 0.753014 253.478 0.753014C251.594 0.753014 249.714 2.63467 249.714 4.51634C249.714 6.77363 251.407 8.28141 253.478 8.28141C255.546 8.27966 257.241 6.77363 257.241 4.51634ZM271.919 38.5784L270.79 35.1907H270.227C269.286 35.1907 268.534 34.6282 268.534 32.5561V7.90403C268.534 4.51634 268.534 2.25905 268.155 0.375641L262.512 1.69297C262.888 3.57464 263.075 5.4563 263.075 9.21962V32.93C263.075 36.882 265.147 39.141 268.344 39.141C269.85 39.141 270.788 38.9541 271.919 38.5784V38.5784ZM284.715 38.5784L283.586 35.1907C282.835 35.1907 282.269 35.1908 281.893 34.8151C281.517 34.249 281.327 33.1186 281.327 30.484V7.90403C281.327 4.51634 281.327 2.25905 280.764 0.375641L275.121 1.69297C275.684 3.57464 275.684 5.4563 275.684 9.21962V31.9883C275.684 34.8134 276.246 36.3194 277.001 37.2611C277.756 38.5784 279.447 39.141 281.14 39.141C282.455 39.141 283.584 38.9541 284.715 38.5784V38.5784ZM326.868 12.043C326.302 11.8543 325.739 11.6674 324.796 11.6674C321.974 11.6674 319.715 13.1716 318.022 15.8063V15.242C318.022 13.7377 317.646 12.796 317.08 11.6674L312 12.9847C312.754 14.6777 312.941 16.5593 312.941 19.7583V38.5767H318.398V21.0757C318.773 19.5714 319.152 19.0053 320.09 18.0654C321.032 17.1237 322.35 16.9367 323.478 16.9367C324.044 16.9367 324.42 17.1237 325.171 17.3123L326.868 12.043V12.043ZM30.6744 30.1083C30.6744 30.1083 26.1598 28.6041 19.7601 28.6041C13.1734 28.6041 8.65704 30.1083 8.65704 30.1083V9.59701H9.03268C9.03268 9.59701 10.7274 27.6624 19.7601 27.6624C28.6041 27.6624 30.297 9.59701 30.297 9.59701H30.6727V30.1083H30.6744ZM39.3297 19.7583C39.3297 8.84224 30.4857 0 19.7601 0C8.84573 0 0 8.84398 0 19.7583C0 30.6744 8.84399 39.5167 19.7601 39.5167C30.4857 39.5167 39.3297 30.6744 39.3297 19.7583Z" fill="#EFEFEF"/>
</svg>
