<svg width="45" height="45" viewBox="0 0 45 45" fill="none" xmlns="http://www.w3.org/2000/svg">
<rect width="45" height="45" rx="10" fill="#F9CADA"/>
<path d="M33.6177 11.412C33.6163 11.4106 33.6152 11.4092 33.6138 11.4078C33.6124 11.4065 33.6109 11.4054 33.6095 11.4042C33.236 11.0493 32.7002 10.9427 32.2098 11.1264L10.8339 19.1335C10.2687 19.3452 9.93766 19.8752 10.0098 20.4523C10.0821 21.0294 10.5346 21.4694 11.1359 21.547L21.5833 22.8968C21.6028 22.8994 21.6185 22.9143 21.6212 22.9332L23.0301 32.9417C23.1112 33.5177 23.5704 33.9512 24.1729 34.0204C24.2279 34.0268 24.2824 34.0298 24.3364 34.0298C24.8735 34.0298 25.3486 33.7229 25.5495 33.231L33.9077 12.7527C34.0994 12.283 33.9882 11.7698 33.6177 11.412ZM11.3053 20.3447C11.2819 20.3417 11.2714 20.3404 11.2673 20.3079C11.2632 20.2754 11.2732 20.2716 11.2951 20.2635L31.2946 12.7719L21.9404 21.7333C21.8794 21.7163 11.3053 20.3447 11.3053 20.3447ZM24.37 32.7892C24.3614 32.8102 24.358 32.8198 24.3236 32.8158C24.2897 32.8119 24.2883 32.8017 24.2852 32.7794C24.2852 32.7794 22.8535 22.6495 22.8358 22.5911L32.19 13.6297L24.37 32.7892Z" fill="white"/>
</svg>
